<svg width="24" height="24" viewBox="0 0 24 24" fill="none" xmlns="http://www.w3.org/2000/svg">
<path d="M18.6336 12.3742L20.5595 10.2188L14.9095 8.99537L12 4L9.09046 8.99537L3.44049 10.2188L7.29227 14.5296L6.70993 20.2812L9.35497 19.1156L10.6775 18.5328" stroke="white" stroke-width="2" stroke-linecap="round" stroke-linejoin="round"/>
<path d="M17 14C17.5523 14 18 14.4477 18 15V17H20C20.5523 17 21 17.4477 21 18C21 18.5523 20.5523 19 20 19H18V21C18 21.5523 17.5523 22 17 22C16.4477 22 16 21.5523 16 21V19H14C13.4477 19 13 18.5523 13 18C13 17.4477 13.4477 17 14 17H16V15C16 14.4477 16.4477 14 17 14Z" fill="white"/>
</svg>
