<svg width="24" height="24" viewBox="0 0 24 24" fill="none" xmlns="http://www.w3.org/2000/svg">
<g clip-path="url(#clip0_13_4)">
<path d="M22.405 9.879C22.407 9.895 22.415 9.899 22.475 9.898H23.2C23.3197 9.89836 23.438 9.87175 23.5461 9.82013C23.6541 9.76851 23.7491 9.6932 23.8241 9.59982C23.899 9.50643 23.9519 9.39736 23.9789 9.28071C24.0059 9.16405 24.0063 9.04281 23.98 8.926C23.9375 8.7306 23.8229 8.55842 23.659 8.44386C23.4952 8.32929 23.2941 8.28077 23.096 8.308C22.9036 8.33313 22.7271 8.42772 22.5997 8.57396C22.4722 8.72021 22.4026 8.90801 22.404 9.102C22.404 9.203 22.402 9.768 22.405 9.879ZM10.896 14.687C10.693 14.688 9.543 14.691 9.211 14.69C8.95071 14.6877 8.69233 14.6452 8.445 14.564C8.43915 14.5623 8.43288 14.5627 8.42735 14.5653C8.42183 14.5679 8.41744 14.5724 8.415 14.578L7.7 16.127C7.69741 16.1326 7.697 16.139 7.69884 16.1449C7.70069 16.1508 7.70467 16.1559 7.71 16.159C7.821 16.219 8.046 16.283 8.205 16.283C8.865 16.293 9.525 16.285 10.186 16.283C10.196 16.283 10.206 16.277 10.209 16.268L10.921 14.723C10.9229 14.7191 10.9238 14.7147 10.9235 14.7103C10.9232 14.7059 10.9218 14.7017 10.9194 14.6981C10.9169 14.6944 10.9136 14.6915 10.9097 14.6895C10.9057 14.6876 10.9014 14.6867 10.897 14.687H10.896ZM0.477003 9.91C0.406003 9.91 0.401003 9.912 0.401003 9.92C0.396382 9.94649 0.393045 9.97318 0.391003 10C0.364003 10.397 0.353003 10.495 0.157003 13.06C0.145003 13.3 0.123003 13.449 0.022003 13.667C-0.00399703 13.724 -0.010997 13.709 0.025003 13.779C0.071003 13.871 0.706003 15.302 0.812003 15.519C0.820003 15.534 0.823003 15.539 0.829003 15.539C0.837003 15.539 0.862003 15.513 0.876003 15.495C1.023 15.308 1.144 15.104 1.247 14.889C1.553 14.254 1.687 13.564 1.733 13.183C1.747 13.073 1.754 12.963 1.763 12.853L1.967 10.237L1.989 9.944C1.992 9.915 1.989 9.911 1.959 9.91H0.477003ZM7.68 13.667C7.59093 13.477 7.54484 13.2698 7.545 13.06C7.541 12.976 7.514 12.67 7.31 10C7.30923 9.97241 7.30588 9.94496 7.3 9.918C7.296 9.907 7.248 9.91 7.224 9.91H5.744C5.714 9.911 5.71 9.915 5.714 9.944L5.735 10.237C5.811 11.219 5.888 12.201 5.968 13.183C6.018 13.583 6.154 14.268 6.455 14.889C6.558 15.104 6.678 15.308 6.825 15.495C6.84 15.513 6.862 15.546 6.873 15.544C6.893 15.541 7.615 13.902 7.677 13.779C7.713 13.709 7.707 13.724 7.68 13.667ZM11.541 12.754H10.669C10.6478 12.7542 10.6269 12.7491 10.6083 12.7391C10.5896 12.7291 10.5738 12.7145 10.5622 12.6968C10.5506 12.6791 10.5437 12.6587 10.5421 12.6376C10.5405 12.6165 10.5443 12.5953 10.553 12.576L11.731 9.951C11.7327 9.94719 11.7334 9.94302 11.733 9.93888C11.7326 9.93473 11.7313 9.93074 11.729 9.92727C11.7267 9.92379 11.7236 9.92094 11.7199 9.91897C11.7163 9.91701 11.7122 9.91598 11.708 9.916L10.39 9.913C10.3651 9.9131 10.3406 9.90693 10.3187 9.89505C10.2969 9.88317 10.2784 9.86596 10.2649 9.84503C10.2514 9.8241 10.2435 9.80011 10.2417 9.77528C10.24 9.75046 10.2446 9.72559 10.255 9.703L11.131 7.749C11.1327 7.74519 11.1334 7.74102 11.133 7.73688C11.1326 7.73273 11.1313 7.72874 11.129 7.72527C11.1267 7.72179 11.1236 7.71894 11.1199 7.71697C11.1163 7.71501 11.1122 7.71398 11.108 7.714H9.548C9.538 7.714 9.528 7.72 9.524 7.729L8.598 9.797C8.513 9.966 8.284 10.431 8.199 10.735C8.18085 10.7969 8.17407 10.8616 8.179 10.926C8.18247 11.0033 8.20537 11.0784 8.24557 11.1445C8.28577 11.2105 8.34198 11.2654 8.409 11.304C8.55027 11.3808 8.70824 11.4216 8.869 11.423H9.459C9.5 11.423 8.771 12.905 8.625 13.395C8.60794 13.4507 8.60017 13.5088 8.602 13.567C8.60257 13.6476 8.62406 13.7266 8.66438 13.7964C8.7047 13.8662 8.76246 13.9243 8.832 13.965C8.982 14.057 9.174 14.085 9.307 14.085L10.967 14.084C10.977 14.084 10.987 14.078 10.99 14.069L11.565 12.789C11.5667 12.7851 11.5674 12.7808 11.567 12.7766C11.5666 12.7724 11.5651 12.7683 11.5627 12.7648C11.5603 12.7613 11.5571 12.7585 11.5533 12.7566C11.5495 12.7547 11.5452 12.7538 11.541 12.754ZM4.611 7.817H3.1C3.09555 7.81672 3.09109 7.81737 3.0869 7.81891C3.08272 7.82046 3.0789 7.82286 3.0757 7.82597C3.0725 7.82908 3.06998 7.83282 3.06831 7.83696C3.06664 7.8411 3.06585 7.84554 3.066 7.85C3.066 8.898 3.056 10.645 3.056 14.679C3.056 14.967 2.787 14.941 2.776 14.941H2.036C1.996 14.942 1.992 14.945 1.996 14.988C1.997 15.025 2.461 16.052 2.551 16.251C2.561 16.271 2.581 16.284 2.602 16.284C2.759 16.287 3.369 16.293 3.54 16.27C3.693 16.25 3.84 16.21 3.978 16.138C4.278 15.982 4.468 15.719 4.573 15.373C4.625 15.201 4.648 15.02 4.648 14.84C4.65 12.51 4.648 10.18 4.641 7.849C4.641 7.84051 4.63763 7.83237 4.63163 7.82637C4.62563 7.82037 4.61749 7.817 4.609 7.817H4.611ZM16.395 14.713C16.395 14.699 16.385 14.692 16.371 14.691H14.906C14.858 14.69 14.857 14.689 14.856 14.642V9.982C14.856 9.91 14.851 9.912 14.926 9.912H15.789C15.869 9.912 15.864 9.916 15.864 9.838V8.393C15.864 8.311 15.87 8.317 15.784 8.317H12.284C12.22 8.317 12.209 8.311 12.209 8.39V9.835C12.209 9.918 12.203 9.912 12.289 9.912H13.143C13.218 9.912 13.213 9.908 13.213 9.982V14.606C13.213 14.701 13.221 14.69 13.128 14.69C12.758 14.69 12.018 14.688 11.824 14.69C11.776 14.691 11.764 14.72 11.764 14.72L11.067 16.239C11.067 16.239 11.053 16.264 11.059 16.275C11.065 16.285 11.072 16.283 11.117 16.283C12.865 16.286 14.612 16.285 16.36 16.285C16.39 16.284 16.394 16.279 16.395 16.252V14.713ZM20.572 11.283C20.572 11.296 20.565 11.306 20.552 11.307C20.206 11.313 19.86 11.311 19.515 11.311C19.501 11.309 19.493 11.301 19.493 11.287C19.488 10.853 19.486 10.418 19.483 9.984C19.483 9.912 19.477 9.913 19.553 9.914L20.286 9.911C20.327 9.911 20.367 9.913 20.406 9.926C20.499 9.951 20.566 10.033 20.571 10.13C20.577 10.561 20.573 11.283 20.572 11.283ZM23.242 11.527C22.9693 11.3845 22.6667 11.3084 22.359 11.305H22.179C22.139 11.304 22.139 11.302 22.137 11.265V10.21C22.137 10.078 22.13 9.947 22.112 9.816C22.0882 9.63259 22.0366 9.45388 21.959 9.286C21.8172 8.98156 21.5793 8.73212 21.282 8.576C20.9743 8.41066 20.6313 8.32215 20.282 8.318C20.129 8.315 19.715 8.318 19.562 8.318C19.492 8.318 19.494 8.322 19.494 8.253V7.76C19.494 7.729 19.484 7.719 19.448 7.721H17.93C17.93 7.721 17.914 7.721 17.907 7.728C17.901 7.734 17.899 7.74 17.899 7.751V8.297C17.891 8.333 17.842 8.312 17.817 8.319H16.867C16.845 8.321 16.839 8.327 16.837 8.351V9.832C16.837 9.922 16.833 9.914 16.919 9.914H17.832C17.914 9.914 17.904 10.042 17.904 10.042V11.19C17.904 11.19 17.907 11.307 17.844 11.307H16.362C16.294 11.307 16.302 11.389 16.302 11.389V12.834C16.302 12.834 16.292 12.902 16.366 12.902H17.823C17.905 12.902 17.899 12.896 17.899 12.981V16.206C17.899 16.294 17.892 16.287 17.981 16.287H19.411C19.501 16.287 19.493 16.294 19.493 16.207V12.937C19.493 12.908 19.499 12.902 19.526 12.902L21.849 12.899C21.947 12.899 22.04 12.919 22.129 12.96C22.2084 12.9951 22.2763 13.0519 22.3248 13.1239C22.3733 13.1959 22.4004 13.2802 22.403 13.367C22.411 13.762 22.406 14.157 22.406 14.552C22.406 14.811 22.299 14.919 22.076 14.919H20.858C20.835 14.921 20.829 14.927 20.83 14.952C21.014 15.389 21.204 15.823 21.4 16.255C21.4036 16.2626 21.4092 16.2691 21.4163 16.2737C21.4233 16.2783 21.4316 16.2808 21.44 16.281C21.61 16.286 21.78 16.283 21.95 16.284C22.1 16.282 22.467 16.288 22.616 16.274C22.7542 16.263 22.8909 16.2379 23.024 16.199C23.614 16.019 23.999 15.501 24 14.886V12.905C24 12.777 23.99 12.651 23.966 12.525C23.966 12.603 23.937 11.884 23.242 11.527Z" fill="#FF2442"/>
</g>
<defs>
<clipPath id="clip0_13_4">
<rect width="24" height="24" fill="white"/>
</clipPath>
</defs>
</svg>
